HIERARCHY
ROOT RootJoint
{
    OFFSET   0.000000   0.000000   0.000000
    CHANNELS 6 Xposition Yposition Zposition Xrotation Yrotation Zrotation
    JOINT lHip
    {
        OFFSET   0.100000  -0.051395   0.000000
        CHANNELS 3 Xrotation Yrotation Zrotation
        JOINT lKnee
        {
            OFFSET   0.000000  -0.410000   0.000000
            CHANNELS 3 Xrotation Yrotation Zrotation
            JOINT lAnkle
            {
                OFFSET   0.000000  -0.390000   0.000000
                CHANNELS 3 Xrotation Yrotation Zrotation
                JOINT lToeJoint
                {
                    OFFSET   0.000000  -0.050000   0.130000
                    CHANNELS 3 Xrotation Yrotation Zrotation
                    End Site
                    {
                        OFFSET   0.010000   0.002000   0.060000
                    }
                }
            }
        }
    }
    JOINT rHip
    {
        OFFSET  -0.100000  -0.051395   0.000000
        CHANNELS 3 Xrotation Yrotation Zrotation
        JOINT rKnee
        {
            OFFSET   0.000000  -0.410000   0.000000
            CHANNELS 3 Xrotation Yrotation Zrotation
            JOINT rAnkle
            {
                OFFSET   0.000000  -0.390000   0.000000
                CHANNELS 3 Xrotation Yrotation Zrotation
                JOINT rToeJoint
                {
                    OFFSET   0.000000  -0.050000   0.130000
                    CHANNELS 3 Xrotation Yrotation Zrotation
                    End Site
                    {
                        OFFSET  -0.010000   0.002000   0.060000
                    }
                }
            }
        }
    }
    JOINT pelvis_lowerback
    {
        OFFSET   0.000000   0.093605   0.000000
        CHANNELS 3 Xrotation Yrotation Zrotation
        JOINT lowerback_torso
        {
            OFFSET   0.000000   0.100000   0.000000
            CHANNELS 3 Xrotation Yrotation Zrotation
            JOINT torso_head
            {
                OFFSET   0.000000   0.282350   0.000000
                CHANNELS 3 Xrotation Yrotation Zrotation
                End Site
                {
                    OFFSET   0.000000   0.192650   0.000000
                }
            }
            JOINT lTorso_Clavicle
            {
                OFFSET   0.001000   0.157500   0.000000
                CHANNELS 3 Xrotation Yrotation Zrotation
                JOINT lShoulder
                {
                    OFFSET   0.117647   0.000000   0.000000
                    CHANNELS 3 Xrotation Yrotation Zrotation
                    JOINT lElbow
                    {
                        OFFSET   0.245000   0.000000   0.000000
                        CHANNELS 3 Xrotation Yrotation Zrotation
                        JOINT lWrist
                        {
                            OFFSET   0.240000   0.000000   0.000000
                            CHANNELS 3 Xrotation Yrotation Zrotation
                            End Site
                            {
                                OFFSET   0.116353  -0.002500   0.000000
                            }
                        }
                    }
                }
            }
            JOINT rTorso_Clavicle
            {
                OFFSET  -0.001000   0.157500   0.000000
                CHANNELS 3 Xrotation Yrotation Zrotation
                JOINT rShoulder
                {
                    OFFSET  -0.117647   0.000000   0.000000
                    CHANNELS 3 Xrotation Yrotation Zrotation
                    JOINT rElbow
                    {
                        OFFSET  -0.245000   0.000000   0.000000
                        CHANNELS 3 Xrotation Yrotation Zrotation
                        JOINT rWrist
                        {
                            OFFSET  -0.240000   0.000000   0.000000
                            CHANNELS 3 Xrotation Yrotation Zrotation
                            End Site
                            {
                                OFFSET  -0.116353  -0.002500   0.000000
                            }
                        }
                    }
                }
            }
        }
    }
}
MOTION
Frames: 10
Frame Time:   0.010000
  0.364102   0.575454   0.385419  23.237520 -79.546113  21.566204 -99.528650  36.187862  45.754256  83.755329  18.586370  35.551479 -11.455758  -0.840761 -14.233223   2.033050  -8.498848  -9.429965 -104.426548 -50.597025 -44.791053  81.878723 -29.091992 -26.878211  12.623424  -9.423033  24.773323  -6.616660  -8.578123  -7.628352  12.646786  -4.450969  -4.066456  57.572375   6.735781  17.164984  82.294732  15.984388 -22.771415  -9.499308 -10.072528 -84.253702  85.114883 -84.691595  -4.453027  54.519554 -72.168413  90.325642  47.420499  13.602620 -31.115212  -2.721821   4.482504  85.160245  41.121708  85.221311  51.914367  69.835699  77.239075 -107.162672  69.231041  20.820992 -32.486574
  0.353031   0.473636   0.304074  25.849903 -77.787857  19.937074 -102.642222  43.167078  45.406081  83.647930  17.887979  37.478988 -14.866715   1.169644 -20.917279   1.250295  -5.685931  -9.439549 -102.471706 -49.017339 -41.757216  82.085032 -28.871784 -27.757931  -0.699303 -17.230350  14.980996  -7.977949  -4.857161  -4.860754  17.720268  -9.345736  -2.714006  58.756893   1.013599  14.415404  78.630907  -2.615251  -2.514203 -11.007721 -13.703492 -85.062878  86.098413 -84.619792  -3.551793  56.917570 -70.027747  91.781151  45.724319  12.919866 -34.644888  -0.467184   3.564189  85.645429  41.283976  85.610365  51.521265  70.633095  76.644968 -106.301243  71.553884  21.412739 -35.594717
  0.392570   0.523318   0.356652  32.354931 -70.248424  30.840162 -102.251750  37.188910  51.725809  84.332180  18.269974  32.930969 -18.205330   5.913128 -26.191102   4.604205  -3.121988  -6.517334 -103.415533 -52.190378 -41.684341  82.576689 -22.256487 -33.564701  -6.610399  -9.175827  24.377439  -6.331885  -7.218597  -6.693520  16.643073  -0.431888   1.884002  57.983082   4.678330  12.388278  77.778871   6.061556  -1.994837  -4.145430 -13.696786 -84.023211  85.894632 -84.634868  -3.738419  57.663844 -70.332248  90.337382  52.991044  13.740154 -39.946160  -7.253959   3.230821  86.316505  40.732429  85.904366  51.859410  69.451550  79.951198 -105.921764  60.759517  25.312838 -31.377321
  0.433687   0.580480   0.488743   2.698945 -78.682700  -1.252623 -99.092247  35.913444  45.527954  84.124505  19.023695  32.670416  -8.865196  -2.759574 -13.166155   6.321847  -4.381582  -6.951721 -102.729682 -50.725966 -42.733499  83.013207 -22.249182 -30.328991   4.801049 -10.070211  34.976203  -4.473822  -3.024613  -1.050582  13.809239  -4.197083  -0.483733  57.709941   9.860397  15.490786  82.563156  12.299732 -22.083570  -7.986385 -10.596682 -84.459873  86.498310 -84.589400  -3.186215  58.889549 -66.586033  94.675963  53.325654   8.940176 -37.761753  -2.519826   2.028098  85.820945  41.627833  86.194767  50.830890  69.578715  76.250133 -107.883036  72.303781  15.413848 -31.057828
  0.191991   0.616833   0.252474  -6.410730 -79.454358  -9.016991 -102.825618  40.968065  48.218551  83.456257  18.973288  36.534401  -6.837429   5.222156 -19.934790   3.272377  -5.338097  -8.075243 -102.480274 -49.581991 -45.124930  82.660411 -28.554418 -25.150871  -5.413299 -15.255436  16.856811  -9.938640  -5.317711  -4.242351  13.248301  -3.398287  -3.449814  56.523314   5.223739  14.561886  79.471391  11.244554 -17.919669  -9.301774  -9.274494 -84.155408  86.092629 -84.620101  -3.557209  57.458446 -67.805066  94.705279  54.614443   9.205824 -37.923848  -0.900445   5.298170  85.496223  41.143127  85.502623  51.720119  69.521372  81.371558 -106.566774  70.023428  18.050609 -33.300753
  0.363704   0.542776   0.415517 -16.470797 -76.455105  -7.441933 -98.919454  33.057862  47.958231  84.134510  18.844592  32.598292 -20.763406   1.278001 -22.936689   4.761954  -1.752840  -0.367418 -102.116000 -48.493507 -44.450472  84.678092 -16.035822 -29.321793   7.498486   0.389109  32.020295   0.311802  -2.952821  -4.904659  13.031240  -4.429905   1.419250  55.406293  -3.482897  17.954552  80.293191   7.869202 -14.666951  -9.851895 -13.100557 -84.628905  85.363144 -84.673542  -4.225575  57.444282 -68.830098  93.177617  56.062992   3.253961 -36.553010  -3.436571  -0.238174  84.935779  41.636268  85.477498  51.270512  72.696083  74.151991 -104.695647  65.358026  19.113482 -27.931093
  0.339136   0.562530   0.453518  38.062201 -74.994839  41.944543 -100.149638  38.568507  45.203171  83.598916  20.664827  32.410745 -15.027673   6.459095 -12.688543  10.680278  -7.753913  -8.133704 -99.873204 -49.518376 -38.134190  82.738214 -20.585627 -34.849630   6.602604  -4.942222  27.061414  -8.747568  -4.909116  -3.925700  16.909031  -2.955802   4.412898  60.322319  -1.931374  11.541641  81.061879   7.435901 -10.933519  -9.978441 -10.348735 -84.412682  86.753105 -84.569782  -2.953438  58.236107 -69.702974  90.793679  60.538844   7.030584 -42.472349  -2.735185   2.579574  85.704232  40.954937  86.606168  51.213507  72.619052  74.278179 -105.168723  66.058070  19.937221 -24.813483
  0.401863   0.749934   0.388386  45.981943 -77.904766  35.898528 -101.342309  37.474197  49.284951  83.053476  21.004065  35.130743 -20.243868  -0.281388 -27.349784   8.876192  -7.097203  -7.731623 -102.816575 -51.164687 -41.427235  82.208731 -27.224004 -28.928408   3.514913 -18.172820  35.492373  -7.762883  -4.519664  -7.998133  15.987482  -3.121889  -2.594204  59.518338  -4.714172  12.864475  80.183052   2.852017  -1.499383 -12.369895  -8.659264 -84.385299  86.190088 -84.612916  -3.467912  57.789492 -69.595705  91.505489  54.231224   9.110036 -35.564839  -2.962410   0.365603  86.196135  41.300968  86.363143  51.036193  69.600482  76.359363 -107.742292  67.060047  21.794009 -26.164587
  0.199491   0.606486   0.320010  10.706136 -79.514958  12.168723 -99.429501  33.572040  48.913757  87.529601   6.786395  37.114469 -15.401980 -12.684682 -14.267037   3.367447  -5.038912  -5.296080 -102.476188 -44.072512 -49.006963  81.438438 -25.045237 -34.816501  -0.379450 -11.226443  33.957611  -6.668078  -0.398089  -7.692901  12.205062   2.514972  -5.227083  55.921052   1.989565  17.327424  85.518923  23.208304 -36.275670  -8.858799 -14.491389 -84.556390  85.906401 -84.634073  -3.727568  58.012522 -66.475626  95.841190  55.340429   6.852078 -33.075390  -2.003987   1.654112  85.141431  41.173545  85.709967  51.563040  68.805636  78.655525 -108.197014  66.519659  16.693909 -24.188600
  0.424222   0.471388   0.443258  18.496603 -80.878579  15.720895 -97.780431  38.311267  38.866924  84.223452  15.959240  37.935554 -25.659796  -5.550153  -6.079650   3.207790  -8.699211  -5.868784 -102.958345 -43.850898 -50.235397  81.716865 -26.478802 -31.357647   4.590818 -10.058978  40.028149  -5.414053  -8.989691  -0.941357   7.287017  -2.653271  -1.787533  56.056817  10.239029  18.247038  82.220279   5.395701 -23.124483 -10.124361 -10.834640 -84.358823  86.759589 -84.569511  -2.947286  57.758230 -71.914100  87.002915  55.144737  10.873138 -42.317678  -6.409892   8.594879  85.803677  41.914473  85.744543  50.842187  69.954850  76.686674 -107.226561  66.601951  20.465464 -30.641022
